<svg width="24" height="25" viewBox="0 0 24 25" fill="none" xmlns="http://www.w3.org/2000/svg">
<path d="M21.75 6.46017C21.0328 6.76954 20.2523 6.9922 19.4484 7.07892C20.2831 6.58306 20.9081 5.7997 21.2062 4.87579C20.423 5.3417 19.565 5.66841 18.6703 5.84142C18.2963 5.44163 17.8441 5.12315 17.3416 4.90581C16.8392 4.68847 16.2974 4.57693 15.75 4.57813C13.5351 4.57813 11.7539 6.37345 11.7539 8.57657C11.7539 8.88595 11.7914 9.19532 11.8523 9.49298C8.53593 9.31954 5.57812 7.73517 3.61171 5.30938C3.25341 5.92137 3.06565 6.6182 3.06796 7.32735C3.06796 8.71485 3.77343 9.93829 4.84921 10.6578C4.21524 10.6329 3.59611 10.4586 3.04218 10.1492V10.1984C3.04218 12.1414 4.41562 13.7516 6.24609 14.1219C5.9024 14.2112 5.54884 14.2568 5.19374 14.2578C4.93359 14.2578 4.68749 14.232 4.43906 14.1969C4.94531 15.7813 6.41952 16.932 8.17499 16.9695C6.80156 18.0453 5.08124 18.6781 3.21328 18.6781C2.87812 18.6781 2.56874 18.6664 2.24765 18.6289C4.01952 19.7656 6.12187 20.4219 8.38593 20.4219C15.7359 20.4219 19.7578 14.3328 19.7578 9.04767C19.7578 8.87423 19.7578 8.70079 19.7461 8.52735C20.5242 7.95782 21.2062 7.25235 21.75 6.46017Z" fill="white"/>
</svg>
