<svg width="20" height="17" viewBox="0 0 20 17" fill="none" xmlns="http://www.w3.org/2000/svg">
<path d="M19.75 2.46017C19.0328 2.76954 18.2523 2.9922 17.4484 3.07892C18.2831 2.58306 18.9081 1.7997 19.2062 0.875791C18.423 1.3417 17.565 1.66841 16.6703 1.84142C16.2963 1.44163 15.8441 1.12315 15.3416 0.905808C14.8392 0.688467 14.2974 0.576926 13.75 0.578135C11.5351 0.578135 9.7539 2.37345 9.7539 4.57657C9.7539 4.88595 9.7914 5.19532 9.85234 5.49298C6.53593 5.31954 3.57812 3.73517 1.61171 1.30938C1.25341 1.92137 1.06565 2.6182 1.06796 3.32735C1.06796 4.71485 1.77343 5.93829 2.84921 6.65782C2.21524 6.63285 1.59611 6.4586 1.04218 6.14923V6.19845C1.04218 8.14142 2.41562 9.75157 4.24609 10.1219C3.9024 10.2112 3.54884 10.2568 3.19374 10.2578C2.93359 10.2578 2.68749 10.232 2.43906 10.1969C2.94531 11.7813 4.41952 12.932 6.17499 12.9695C4.80156 14.0453 3.08124 14.6781 1.21328 14.6781C0.878119 14.6781 0.568744 14.6664 0.24765 14.6289C2.01952 15.7656 4.12187 16.4219 6.38593 16.4219C13.7359 16.4219 17.7578 10.3328 17.7578 5.04767C17.7578 4.87423 17.7578 4.70079 17.7461 4.52735C18.5242 3.95782 19.2062 3.25235 19.75 2.46017Z" fill="white"/>
</svg>
